<svg width="40" height="40" viewBox="0 0 40 40" fill="none" xmlns="http://www.w3.org/2000/svg">
<path d="M19.9951 31.6666C19.6002 31.6666 19.2709 31.5336 19.007 31.2674C18.7431 31.0011 18.6111 30.6713 18.6111 30.2778V21.3889H9.72222C9.32872 21.3889 8.99886 21.2553 8.73263 20.9881C8.46644 20.721 8.33334 20.39 8.33334 19.9951C8.33334 19.6002 8.46644 19.2708 8.73263 19.0069C8.99886 18.743 9.32872 18.6111 9.72222 18.6111H18.6111V9.72219C18.6111 9.32869 18.7447 8.99883 19.0118 8.7326C19.279 8.46641 19.61 8.33331 20.0049 8.33331C20.3998 8.33331 20.7292 8.46641 20.9931 8.7326C21.2569 8.99883 21.3889 9.32869 21.3889 9.72219V18.6111H30.2778C30.6713 18.6111 31.0012 18.7447 31.2674 19.0118C31.5336 19.279 31.6667 19.61 31.6667 20.0049C31.6667 20.3997 31.5336 20.7291 31.2674 20.993C31.0012 21.2569 30.6713 21.3889 30.2778 21.3889H21.3889V30.2778C21.3889 30.6713 21.2553 31.0011 20.9882 31.2674C20.721 31.5336 20.39 31.6666 19.9951 31.6666Z" fill="black"/>
</svg>
