<svg width="48" height="48" viewBox="0 0 48 48" fill="none" xmlns="http://www.w3.org/2000/svg">
<path d="M23.9953 35.6667C23.6004 35.6667 23.271 35.5336 23.0071 35.2674C22.7432 35.0012 22.6113 34.6713 22.6113 34.2778V25.3889H13.7224C13.3289 25.3889 12.999 25.2553 12.7328 24.9882C12.4666 24.721 12.3335 24.39 12.3335 23.9951C12.3335 23.6002 12.4666 23.2709 12.7328 23.007C12.999 22.7431 13.3289 22.6111 13.7224 22.6111H22.6113V13.7222C22.6113 13.3287 22.7449 12.9989 23.012 12.7326C23.2791 12.4664 23.6101 12.3333 24.005 12.3333C24.3999 12.3333 24.7293 12.4664 24.9932 12.7326C25.2571 12.9989 25.389 13.3287 25.389 13.7222V22.6111H34.278C34.6715 22.6111 35.0013 22.7447 35.2675 23.0118C35.5337 23.279 35.6668 23.61 35.6668 24.0049C35.6668 24.3998 35.5337 24.7292 35.2675 24.9931C35.0013 25.2569 34.6715 25.3889 34.278 25.3889H25.389V34.2778C25.389 34.6713 25.2555 35.0012 24.9883 35.2674C24.7212 35.5336 24.3902 35.6667 23.9953 35.6667Z" fill="#39528D"/>
<rect x="0.5" y="0.5" width="47" height="47" rx="23.5" stroke="#333333" stroke-opacity="0.1"/>
</svg>
