<svg width="336" height="336" viewBox="0 0 336 336" fill="none" xmlns="http://www.w3.org/2000/svg">
<g filter="url(#filter0_d_1071_1776)">
<rect x="4" width="328" height="328" rx="10" fill="#ECEBF6" fill-opacity="0.4" shape-rendering="crispEdges"/>
<g filter="url(#filter1_f_1071_1776)">
<path d="M183.675 281.975V255.3H210.625V281.975H183.675ZM157 255.3V190.675H183.675V255.3H157ZM257.65 215.7V164H284.325V215.7H257.65ZM230.975 164V137.325H257.65V164H230.975ZM76.6999 190.675V164H103.65V190.675H76.6999ZM50.0249 164V137.325H76.6999V164H50.0249ZM168 72.7V46.025H194.675V72.7H168ZM70.0999 105.975H110.25V66.1H70.0999V105.975ZM62.9499 126.325C59.3291 126.325 56.2697 125.076 53.7718 122.578C51.2739 120.08 50.0249 116.899 50.0249 113.035V58.95C50.0249 55.3292 51.2739 52.2698 53.7718 49.7719C56.2697 47.274 59.3291 46.025 62.9499 46.025H117.4C121.021 46.025 124.08 47.274 126.578 49.7719C129.076 52.2698 130.325 55.3292 130.325 58.95V113.035C130.325 116.899 129.076 120.08 126.578 122.578C124.08 125.076 121.021 126.325 117.4 126.325H62.9499ZM70.0999 261.9H110.25V221.75H70.0999V261.9ZM62.9499 281.975C59.3291 281.975 56.2697 280.726 53.7718 278.228C51.2739 275.73 50.0249 272.671 50.0249 269.05V214.6C50.0249 210.979 51.2739 207.92 53.7718 205.422C56.2697 202.924 59.3291 201.675 62.9499 201.675H117.4C121.021 201.675 124.08 202.924 126.578 205.422C129.076 207.92 130.325 210.979 130.325 214.6V269.05C130.325 272.671 129.076 275.73 126.578 278.228C124.08 280.726 121.021 281.975 117.4 281.975H62.9499ZM226.025 105.975H265.9V66.1H226.025V105.975ZM218.965 126.325C215.101 126.325 211.92 125.076 209.422 122.578C206.924 120.08 205.675 116.899 205.675 113.035V58.95C205.675 55.3292 206.924 52.2698 209.422 49.7719C211.92 47.274 215.101 46.025 218.965 46.025H273.05C276.671 46.025 279.73 47.274 282.228 49.7719C284.726 52.2698 285.975 55.3292 285.975 58.95V113.035C285.975 116.899 284.726 120.08 282.228 122.578C279.73 125.076 276.671 126.325 273.05 126.325H218.965ZM234.275 281.975V242.595H208.975V215.7H257.65V255.3H284.325V281.975H234.275ZM183.675 190.675V164H230.975V190.675H183.675ZM130.325 190.675V164H103.65V137.325H183.675V164H157V190.675H130.325ZM141.325 126.325V72.7H168V101.025H194.675V126.325H141.325ZM82.7499 93.6V78.475H97.5999V93.6H82.7499ZM82.7499 249.25V234.4H97.5999V249.25H82.7499ZM238.4 93.6V78.475H253.525V93.6H238.4Z" fill="white"/>
<rect x="37" y="33" width="262" height="262" rx="9" stroke="black" stroke-width="2"/>
</g>
<path d="M20 90V36C20 24.9543 28.9543 16 40 16H94M20 238V292C20 303.046 28.9543 312 40 312H94M242 312H296C307.046 312 316 303.046 316 292V238M316 90V36C316 24.9543 307.046 16 296 16H242" stroke="white" stroke-width="8" stroke-linecap="round" stroke-linejoin="round"/>
</g>
<defs>
<filter id="filter0_d_1071_1776" x="0" y="0" width="336" height="336" filterUnits="userSpaceOnUse" color-interpolation-filters="sRGB">
<feFlood flood-opacity="0" result="BackgroundImageFix"/>
<feColorMatrix in="SourceAlpha" type="matrix" values="0 0 0 0 0 0 0 0 0 0 0 0 0 0 0 0 0 0 127 0" result="hardAlpha"/>
<feOffset dy="4"/>
<feGaussianBlur stdDeviation="2"/>
<feComposite in2="hardAlpha" operator="out"/>
<feColorMatrix type="matrix" values="0 0 0 0 0 0 0 0 0 0 0 0 0 0 0 0 0 0 0.1 0"/>
<feBlend mode="normal" in2="BackgroundImageFix" result="effect1_dropShadow_1071_1776"/>
<feBlend mode="normal" in="SourceGraphic" in2="effect1_dropShadow_1071_1776" result="shape"/>
</filter>
<filter id="filter1_f_1071_1776" x="16" y="12" width="304" height="304" filterUnits="userSpaceOnUse" color-interpolation-filters="sRGB">
<feFlood flood-opacity="0" result="BackgroundImageFix"/>
<feBlend mode="normal" in="SourceGraphic" in2="BackgroundImageFix" result="shape"/>
<feGaussianBlur stdDeviation="10" result="effect1_foregroundBlur_1071_1776"/>
</filter>
</defs>
</svg>
