<svg width="14" height="24" viewBox="0 0 14 24" fill="none" xmlns="http://www.w3.org/2000/svg">
<path d="M0.49471 23.5053C0.177078 23.1407 0.0123851 22.7171 0.000632698 22.2348C-0.011155 21.7525 0.153538 21.3408 0.49471 20.9996L9.45903 12.0353L0.4594 3.03569C0.141768 2.71805 -0.011155 2.30042 0.000632698 1.78278C0.0123851 1.26518 0.177078 0.84757 0.49471 0.529937C0.859387 0.16526 1.27702 -0.011202 1.74761 0.000550377C2.21816 0.0123028 2.62403 0.188765 2.9652 0.529937L13.2353 10.8C13.4235 10.9883 13.5559 11.1824 13.6323 11.3824C13.7088 11.5824 13.747 11.8 13.747 12.0353C13.747 12.2706 13.7088 12.4882 13.6323 12.6882C13.5559 12.8882 13.4235 13.0823 13.2353 13.2705L3.00046 23.5053C2.65932 23.8465 2.24758 24.0112 1.76524 23.9994C1.2829 23.9877 0.859387 23.823 0.49471 23.5053Z" fill="#333333" fill-opacity="0.4"/>
</svg>
